<svg width="30" height="30" viewBox="0 0 30 30" fill="none" xmlns="http://www.w3.org/2000/svg">
<g clip-path="url(#clip0_3128_231)">
<path d="M20.455 11.25C20.2901 11.25 20.1326 11.1838 20.0161 11.0675L17.5368 8.56751C17.295 8.32376 17.295 7.92751 17.5368 7.68376C17.7785 7.44001 18.1715 7.44001 18.4132 7.68376L20.424 9.71126L24.3264 5.21376C24.5533 4.95251 24.9438 4.92751 25.2004 5.15501C25.4583 5.38251 25.4843 5.77751 25.2587 6.03751L20.9198 11.0375C20.8083 11.1675 20.6471 11.2438 20.476 11.25C20.4686 11.25 20.4624 11.25 20.455 11.25Z" fill="#525252"/>
<path d="M24.1738 21.25H8.05807C7.76303 21.25 7.5089 21.04 7.45063 20.7475L4.9713 8.2475C4.93411 8.06375 4.98245 7.87375 5.09898 7.72875C5.21551 7.58375 5.39402 7.5 5.57873 7.5H10.5374C10.8796 7.5 11.1572 7.78 11.1572 8.125C11.1572 8.47 10.8796 8.75 10.5374 8.75H6.33493L8.56634 20H23.6655L24.0089 18.2687C24.0771 17.9287 24.4167 17.7125 24.7378 17.7787C25.0738 17.8462 25.292 18.175 25.225 18.5137L24.7824 20.7475C24.7229 21.04 24.4688 21.25 24.1738 21.25Z" fill="#525252"/>
<path d="M8.05661 21.2501C7.76777 21.2501 7.50992 21.0451 7.45041 20.7476L4.37727 5.25506C4.20496 4.38131 3.43636 3.74756 2.55372 3.74756H2.55248L0.621074 3.75006C0.619835 3.75006 0.619835 3.75006 0.619835 3.75006C0.277686 3.75006 0 3.47006 0 3.12506C0 2.78006 0.277686 2.50006 0.618595 2.50006L2.55 2.49756H2.55372C4.02645 2.49756 5.30455 3.55381 5.59339 5.01006L8.66529 20.5026C8.73347 20.8413 8.51529 21.1701 8.1781 21.2376C8.13843 21.2463 8.09752 21.2501 8.05661 21.2501Z" fill="#525252"/>
<path d="M26.6526 23.75H5.57825C4.55305 23.75 3.71875 22.9088 3.71875 21.875C3.71875 20.8412 4.55305 20 5.57825 20H8.05759C8.39974 20 8.67743 20.28 8.67743 20.625C8.67743 20.97 8.39974 21.25 8.05759 21.25H5.57825C5.23735 21.25 4.95842 21.53 4.95842 21.875C4.95842 22.22 5.23735 22.5 5.57825 22.5H26.6526C26.9948 22.5 27.2725 22.78 27.2725 23.125C27.2725 23.47 26.9948 23.75 26.6526 23.75Z" fill="#525252"/>
<path d="M9.91781 30C8.55046 30 7.43848 28.8788 7.43848 27.5C7.43848 26.1213 8.55046 25 9.91781 25C11.2852 25 12.3971 26.1213 12.3971 27.5C12.3971 28.8788 11.2852 30 9.91781 30ZM9.91781 26.25C9.23352 26.25 8.67814 26.8113 8.67814 27.5C8.67814 28.1888 9.23352 28.75 9.91781 28.75C10.6021 28.75 11.1575 28.1888 11.1575 27.5C11.1575 26.8113 10.6021 26.25 9.91781 26.25Z" fill="#525252"/>
<path d="M21.0741 30C19.7067 30 18.5947 28.8788 18.5947 27.5C18.5947 26.1213 19.7067 25 21.0741 25C22.4414 25 23.5534 26.1213 23.5534 27.5C23.5534 28.8788 22.4414 30 21.0741 30ZM21.0741 26.25C20.3898 26.25 19.8344 26.8113 19.8344 27.5C19.8344 28.1888 20.3898 28.75 21.0741 28.75C21.7584 28.75 22.3137 28.1888 22.3137 27.5C22.3137 26.8113 21.7584 26.25 21.0741 26.25Z" fill="#525252"/>
</g>
<defs>
<clipPath id="clip0_3128_231">
<rect width="29.7521" height="30" fill="white"/>
</clipPath>
</defs>
</svg>
