<svg width="33" height="32" viewBox="0 0 33 32" fill="none" xmlns="http://www.w3.org/2000/svg">
<path d="M25.3003 1C23.3539 1 21.5713 1.61537 20.0022 2.82889C19.2101 3.44143 18.4926 4.1911 17.86 5.06553C17.2277 4.1911 16.5099 3.44143 15.718 2.82889C14.149 1.61537 12.3664 1 10.42 1C7.81568 1 5.42056 2.04269 3.67502 3.93589C1.95007 5.80697 1 8.36314 1 11.1339C1 13.9856 2.06276 16.5961 4.34442 19.3493C6.38555 21.8121 9.31913 24.3122 12.7163 27.2072L12.7222 27.2123C13.8809 28.1997 15.1943 29.319 16.5565 30.5102C16.9171 30.8261 17.38 31 17.86 31C18.3398 31 18.8029 30.8261 19.1633 30.5107C20.5286 29.3167 21.844 28.1956 23.0048 27.2066C26.4014 24.3119 29.3347 21.8121 31.3759 19.3491" stroke="#525252" stroke-width="1.5" stroke-linecap="round"/>
</svg>
