<svg width="30" height="30" viewBox="0 0 30 30" fill="none" xmlns="http://www.w3.org/2000/svg">
<g clip-path="url(#clip0_3128_222)">
<path d="M19.8912 15.9782H0.978261C0.438259 15.9782 0 15.54 0 15C0 14.46 0.438259 14.0217 0.978261 14.0217H19.8912C20.4312 14.0217 20.8695 14.46 20.8695 15C20.8695 15.54 20.4312 15.9782 19.8912 15.9782Z" fill="#525252"/>
<path d="M14.6738 21.1955C14.4233 21.1955 14.173 21.1005 13.9824 20.9087C13.6003 20.5266 13.6003 19.907 13.9824 19.5247L18.5085 14.9988L13.9824 10.4726C13.6003 10.0905 13.6003 9.47074 13.9824 9.0886C14.3648 8.70647 14.9843 8.70647 15.3664 9.0886L20.5837 14.3062C20.9659 14.6883 20.9659 15.3078 20.5837 15.69L15.3664 20.9073C15.1747 21.1005 14.9244 21.1955 14.6738 21.1955Z" fill="#525252"/>
<path d="M15.6522 29.3479C9.71603 29.3479 4.47531 25.7766 2.29834 20.2486C2.10011 19.7478 2.34778 19.1791 2.85005 18.9809C3.35088 18.7853 3.92098 19.0291 4.11921 19.534C5.99883 24.3066 10.5262 27.3914 15.6522 27.3914C22.4843 27.3914 28.0436 21.8321 28.0436 15C28.0436 8.16794 22.4843 2.60862 15.6522 2.60862C10.5262 2.60862 5.99883 5.69339 4.11921 10.466C3.91954 10.9709 3.35088 11.2147 2.85005 11.0191C2.34778 10.8209 2.10011 10.2522 2.29834 9.75141C4.47531 4.22337 9.71603 0.6521 15.6522 0.6521C23.5631 0.6521 30.0002 7.08913 30.0002 15C30.0002 22.9109 23.5631 29.3479 15.6522 29.3479Z" fill="#525252"/>
</g>
<defs>
<clipPath id="clip0_3128_222">
<rect width="30" height="30" fill="white"/>
</clipPath>
</defs>
</svg>
