<svg width="17" height="16" viewBox="0 0 17 16" fill="none" xmlns="http://www.w3.org/2000/svg">
<path d="M11.753 7.99981C11.753 9.79629 10.2968 11.2526 8.5003 11.2526C6.70382 11.2526 5.24756 9.79629 5.24756 7.99981C5.24756 6.20334 6.70382 4.74707 8.5003 4.74707C10.2968 4.74707 11.753 6.20334 11.753 7.99981Z" fill="#111111"/>
<path d="M16.1072 2.24482C15.9508 1.82111 15.7013 1.4376 15.3772 1.1228C15.0624 0.798665 14.6791 0.549212 14.2552 0.39285C13.9113 0.259307 13.3948 0.100352 12.4434 0.0570475C11.4142 0.010113 11.1056 0 8.50013 0C5.89436 0 5.58578 0.00985367 4.55685 0.0567882C3.60546 0.100352 3.08866 0.259307 2.74508 0.39285C2.32111 0.549212 1.9376 0.798665 1.62306 1.1228C1.29892 1.4376 1.04947 1.82085 0.89285 2.24482C0.759307 2.58866 0.600352 3.10546 0.557047 4.05685C0.510113 5.08578 0.5 5.39436 0.5 8.00013C0.5 10.6056 0.510113 10.9142 0.557047 11.9434C0.600352 12.8948 0.759307 13.4113 0.89285 13.7552C1.04947 14.1791 1.29866 14.5624 1.6228 14.8772C1.9376 15.2013 2.32085 15.4508 2.74482 15.6072C3.08866 15.741 3.60546 15.8999 4.55685 15.9432C5.58578 15.9901 5.8941 16 8.49987 16C11.1059 16 11.4145 15.9901 12.4431 15.9432C13.3945 15.8999 13.9113 15.741 14.2552 15.6072C15.1062 15.2789 15.7789 14.6062 16.1072 13.7552C16.2407 13.4113 16.3996 12.8948 16.4432 11.9434C16.4901 10.9142 16.5 10.6056 16.5 8.00013C16.5 5.39436 16.4901 5.08578 16.4432 4.05685C16.3999 3.10546 16.241 2.58866 16.1072 2.24482ZM8.50013 13.0107C5.73255 13.0107 3.48903 10.7675 3.48903 7.99987C3.48903 5.23229 5.73255 2.98903 8.50013 2.98903C11.2675 2.98903 13.511 5.23229 13.511 7.99987C13.511 10.7675 11.2675 13.0107 8.50013 13.0107ZM13.7091 3.96195C13.0624 3.96195 12.5381 3.43763 12.5381 2.79092C12.5381 2.14421 13.0624 1.61989 13.7091 1.61989C14.3558 1.61989 14.8801 2.14421 14.8801 2.79092C14.8799 3.43763 14.3558 3.96195 13.7091 3.96195Z" fill="#111111"/>
</svg>
