<svg width="17" height="13" viewBox="0 0 17 13" fill="none" xmlns="http://www.w3.org/2000/svg">
<path d="M0.621221 1.31464C2.8781 2.87068 6.83823 5.60823 8.00217 6.4618C8.15842 6.577 8.326 6.63557 8.49998 6.63557C8.67361 6.63557 8.84091 6.57755 8.99681 6.4629C10.1617 5.60849 14.1219 2.87068 16.3788 1.31464C16.5193 1.21795 16.5407 1.04799 16.427 0.92978C16.164 0.656621 15.7719 0.5 15.3517 0.5H1.6483C1.22811 0.5 0.83599 0.656621 0.573045 0.929806C0.459286 1.04799 0.480708 1.21795 0.621221 1.31464Z" fill="black"/>
<path d="M16.3067 2.06606C16.1885 2.00878 16.0495 2.02876 15.9512 2.11624C13.5159 4.26627 10.4079 7.02216 9.43 7.93985C8.88116 8.45583 8.11944 8.45583 7.56931 7.93917C6.527 6.96111 3.03675 3.87097 1.04881 2.11621C0.949844 2.02873 0.810531 2.00943 0.693344 2.06602C0.575531 2.12301 0.5 2.24574 0.5 2.381V11.1114C0.5 11.8772 1.09797 12.5 1.83334 12.5H15.1667C15.902 12.5 16.5 11.8772 16.5 11.1114V2.381C16.5 2.24574 16.4245 2.12269 16.3067 2.06606Z" fill="black"/>
</svg>
