<svg width="33" height="29" viewBox="0 0 33 29" fill="none" xmlns="http://www.w3.org/2000/svg">
<path d="M15.8707 27.7154L15.8713 27.716C16.0406 27.8597 16.2633 27.9429 16.5 27.9429C16.7366 27.9429 16.9597 27.8596 17.1288 27.7162L17.1291 27.716C18.4707 26.5793 19.7626 25.5126 20.8982 24.5753C24.2455 21.8117 27.0385 19.5015 28.9673 17.2466L28.9674 17.2466C31.0883 14.7674 32 12.5145 32 10.1079C32 7.7171 31.1555 5.5466 29.658 3.9729L15.8707 27.7154ZM15.8707 27.7154C14.5336 26.5828 13.2451 25.5189 12.1125 24.5839M15.8707 27.7154L12.1125 24.5839M12.1125 24.5839L12.1104 24.5822L12.1105 24.5821L12.1028 24.5757C8.755 21.8119 5.96172 19.5015 4.03288 17.2468C1.91185 14.7673 1 12.5145 1 10.1079C1 7.71717 1.84472 5.54665 3.34229 3.9729L12.1125 24.5839ZM16.4998 6.02603L15.6986 4.9527C15.133 4.19499 14.4974 3.55377 13.8041 3.03424L16.4998 6.02603ZM16.4998 6.02603L17.3012 4.95285M16.4998 6.02603L17.3012 4.95285M17.3012 4.95285C17.8672 4.19491 18.5027 3.5537 19.1961 3.03428L19.1961 3.03424M17.3012 4.95285L19.1961 3.03424M19.1961 3.03424C20.56 2.01233 22.0945 1.5 23.7814 1.5M19.1961 3.03424L23.7814 1.5M23.7814 1.5C26.0648 1.5 28.1444 2.38255 29.6579 3.97287L23.7814 1.5ZM9.21881 1.5C10.9058 1.5 12.4402 2.01231 13.8041 3.03419L3.34232 3.97287C4.85587 2.38254 6.9352 1.5 9.21881 1.5Z" stroke="black" stroke-width="2"/>
</svg>
