<svg width="17" height="16" viewBox="0 0 17 16" fill="none" xmlns="http://www.w3.org/2000/svg">
<path d="M3.74233 10.6357C5.32643 12.5222 7.23334 14.0075 9.40981 15.0584C10.2385 15.4496 11.3467 15.9138 12.5813 15.9934C12.6579 15.9967 12.7311 16 12.8076 16C13.6363 16 14.3019 15.7149 14.8443 15.1281C14.8477 15.1247 14.8543 15.1181 14.8577 15.1115C15.0507 14.8794 15.2703 14.6705 15.4999 14.4484C15.6564 14.2992 15.8161 14.1434 15.9692 13.9843C16.678 13.2482 16.678 12.3133 15.9625 11.6005L13.9624 9.60796C13.623 9.25653 13.217 9.07087 12.791 9.07087C12.365 9.07087 11.9557 9.25653 11.6063 9.60464L10.4149 10.7915C10.305 10.7286 10.1919 10.6722 10.0854 10.6191C9.95227 10.5528 9.82913 10.4898 9.71931 10.4202C8.6344 9.73394 7.64933 8.83879 6.70752 7.68835C6.23163 7.08827 5.91215 6.58433 5.68917 6.07045C6.002 5.78864 6.29486 5.49358 6.57773 5.20514C6.67757 5.10236 6.78074 4.99959 6.88391 4.89681C7.24332 4.53875 7.43634 4.12433 7.43634 3.70327C7.43634 3.28222 7.24665 2.8678 6.88391 2.50974L5.89218 1.52176C5.7757 1.40572 5.66588 1.293 5.55273 1.17696C5.33308 0.951513 5.10346 0.719436 4.87716 0.510568C4.53438 0.175715 4.1317 0 3.70572 0C3.28307 0 2.87706 0.175715 2.52097 0.513883L1.27632 1.75383C0.823722 2.20472 0.56747 2.75176 0.514223 3.385C0.450992 4.17737 0.597422 5.01948 0.976807 6.0373C1.5592 7.6121 2.43777 9.07418 3.74233 10.6357Z" fill="black"/>
</svg>
