<svg width="16" height="17" viewBox="0 0 16 17" fill="none" xmlns="http://www.w3.org/2000/svg">
<path d="M3.26036 11.1357C4.83848 13.0222 6.73818 14.5075 8.90644 15.5584C9.73197 15.9496 10.836 16.4138 12.066 16.4934C12.1422 16.4967 12.2152 16.5 12.2914 16.5C13.117 16.5 13.78 16.2149 14.3204 15.6281C14.3238 15.6247 14.3304 15.6181 14.3337 15.6115C14.526 15.3794 14.7448 15.1705 14.9736 14.9484C15.1294 14.7992 15.2885 14.6434 15.441 14.4843C16.1472 13.7482 16.1472 12.8133 15.4344 12.1005L13.4419 10.108C13.1037 9.75653 12.6992 9.57087 12.2749 9.57087C11.8505 9.57087 11.4427 9.75653 11.0946 10.1046L9.90768 11.2915C9.79828 11.2286 9.68555 11.1722 9.57946 11.1191C9.44685 11.0528 9.32418 10.9898 9.21477 10.9202C8.13396 10.2339 7.15261 9.33879 6.21436 8.18835C5.74026 7.58827 5.42198 7.08433 5.19985 6.57045C5.5115 6.28864 5.80325 5.99358 6.08506 5.70514C6.18452 5.60236 6.28729 5.49959 6.39007 5.39681C6.74813 5.03875 6.94042 4.62433 6.94042 4.20327C6.94042 3.78222 6.75145 3.3678 6.39007 3.00974L5.40209 2.02176C5.28605 1.90572 5.17664 1.793 5.06392 1.67696C4.84511 1.45151 4.61634 1.21944 4.3909 1.01057C4.04942 0.675715 3.64826 0.5 3.22389 0.5C2.80284 0.5 2.39836 0.675715 2.04361 1.01388L0.803664 2.25383C0.352773 2.70472 0.0974891 3.25176 0.0444431 3.885C-0.0185491 4.67737 0.127327 5.51948 0.50528 6.5373C1.08547 8.1121 1.96073 9.57418 3.26036 11.1357Z" fill="#D3D3D3"/>
</svg>
