<svg width="20" height="15" viewBox="0 0 20 15" fill="none" xmlns="http://www.w3.org/2000/svg">
<path d="M19.7583 0.588318C19.6106 0.511946 19.4369 0.53859 19.314 0.655231C16.2699 3.52189 12.3848 7.19636 11.1625 8.41993C10.4764 9.10789 9.5243 9.10789 8.83664 8.41902C7.53375 7.11496 3.17094 2.99483 0.686016 0.655188C0.562305 0.538546 0.388164 0.512814 0.24168 0.588275C0.0944141 0.664257 0 0.827894 0 1.00824V12.6485C0 13.6697 0.747461 14.5 1.66668 14.5H18.3334C19.2525 14.5 20 13.6697 20 12.6485V1.00824C20 0.827894 19.9056 0.663823 19.7583 0.588318Z" fill="#D3D3D3"/>
</svg>
