<svg width="20" height="15" viewBox="0 0 20 15" fill="none" xmlns="http://www.w3.org/2000/svg">
<path d="M19.3729 2.91189C19.1834 2.805 18.9684 2.75156 18.7509 2.75727C18.5334 2.76298 18.3215 2.82762 18.1378 2.94431L17.1512 3.56099C16.1623 3.20236 15.1665 2.80263 14.1888 2.37091C13.3827 2.01498 12.7946 1.72869 12.3221 1.49865C11.2829 0.99271 10.8083 0.761226 9.99222 0.781772C9.19535 0.801304 8.73253 1.04931 7.96578 1.4599C7.51394 1.70185 6.9516 2.00287 6.12308 2.37107C5.06281 2.84192 3.97228 3.24147 2.85878 3.56705L1.86226 2.94431C1.6786 2.82762 1.46671 2.76298 1.24919 2.75727C1.03167 2.75156 0.816674 2.805 0.627143 2.91189C0.436043 3.01596 0.276776 3.16994 0.166333 3.35743C0.0558901 3.54492 -0.00158698 3.75887 3.33346e-05 3.97646V7.65677C-0.000621799 7.86334 0.0516048 8.06663 0.151741 8.2473C0.251878 8.42797 0.396591 8.58 0.572104 8.68892L2.50003 9.89392V10.2161C2.49958 10.4448 2.54952 10.6707 2.6463 10.8779C2.74308 11.0851 2.88433 11.2684 3.05999 11.4149C6.38285 14.1872 9.96425 14.2193 10 14.2193C13.15 14.2193 15.5323 12.6867 16.9763 11.401C17.1409 11.2543 17.2727 11.0745 17.363 10.8734C17.4532 10.6722 17.4999 10.4542 17.5 10.2337V10.0175L19.4279 8.81252C19.6034 8.7036 19.7482 8.55158 19.8483 8.3709C19.9485 8.19023 20.0007 7.98693 20 7.78037V3.97646C20.0017 3.75887 19.9442 3.54492 19.8337 3.35743C19.7233 3.16994 19.564 3.01596 19.3729 2.91189ZM4.79449 8.61314C6.4625 9.22175 8.22445 9.53269 10 9.53177C11.7756 9.53271 13.5376 9.22177 15.2056 8.61314L15.4195 9.20037C13.683 9.83402 11.8486 10.1577 10 10.1568C8.15149 10.1577 6.31714 9.83402 4.58058 9.20041L4.79449 8.61314ZM4.58054 6.38787L4.79449 5.80064C6.4625 6.40925 8.22445 6.72019 10 6.71927C11.7756 6.7202 13.5376 6.40927 15.2056 5.80064L15.4195 6.38787C13.683 7.02152 11.8486 7.34524 10 7.34427C8.15149 7.34523 6.31714 7.02152 4.58058 6.38791L4.58054 6.38787ZM0.903354 8.15888C0.817968 8.1059 0.747564 8.03194 0.698847 7.94405C0.650129 7.85616 0.624718 7.75726 0.625033 7.65677V3.97646C0.62504 3.87076 0.653338 3.76699 0.706989 3.67593C0.760641 3.58486 0.83769 3.50981 0.930138 3.45857C1.02259 3.40734 1.12706 3.38178 1.23272 3.38455C1.33839 3.38733 1.44138 3.41833 1.53101 3.47435L2.50003 4.07998V9.15677L0.903354 8.15888ZM19.375 7.78037C19.3754 7.88086 19.3499 7.97976 19.3012 8.06765C19.2525 8.15554 19.1821 8.2295 19.0967 8.28248L17.5 9.28041V4.07998L18.4691 3.47451C18.5587 3.4185 18.6617 3.38749 18.7673 3.38471C18.8729 3.38193 18.9774 3.40747 19.0699 3.45869C19.1623 3.50991 19.2394 3.58493 19.293 3.67598C19.3467 3.76703 19.375 3.87078 19.375 3.97646V7.78037Z" fill="#E5E5E5"/>
</svg>
